<svg width="64" height="70" viewBox="0 0 64 70" fill="none" xmlns="http://www.w3.org/2000/svg">
<path d="M50.4053 49.7198L43.907 47.5542L41.5742 42.8884C43.6759 40.7493 45.1351 37.9189 45.6271 34.9667L45.918 33.2229H48.4062C50.6678 33.2229 52.5078 31.3829 52.5078 29.1213V20.5081C52.5078 9.20005 43.3079 0.000244141 31.9999 0.000244141C20.6629 0.000244141 11.4921 9.17366 11.4921 20.5081V29.1213C11.4921 30.9036 12.6352 32.4234 14.2265 32.9877V34.5901C14.2265 36.8517 16.0665 38.6917 18.3281 38.6917H19.5287C20.1214 39.9791 20.8885 41.1716 21.822 42.2428C22.0156 42.4654 22.2176 42.6811 22.4244 42.891L20.0928 47.5542L13.5945 49.7199C6.03869 52.2394 0.554626 60.1935 0.554626 68.6331C0.554626 69.3882 1.16672 70.0002 1.92181 70.0002H62.0781C62.833 70.0002 63.4453 69.3882 63.4453 68.6331C63.4453 60.1935 57.9613 52.2394 50.4053 49.7198ZM49.7734 29.1213C49.7734 29.8752 49.1601 30.4885 48.4062 30.4885H46.3196C46.6671 27.7965 46.8987 24.9319 46.9918 22.1104C46.9946 22.0308 46.9968 21.9534 46.9992 21.8752H49.7734V29.1213ZM15.5937 30.4885C14.8398 30.4885 14.2265 29.8752 14.2265 29.1213V21.8752H17.0016C17.0061 22.0178 17.0109 22.1611 17.0162 22.3054C17.0164 22.3103 17.0167 22.3151 17.0168 22.32C17.0168 22.3204 17.0168 22.3208 17.0168 22.3212C17.1125 25.0654 17.3411 27.8557 17.6807 30.4884H15.5937V30.4885ZM18.3281 35.9573C17.5742 35.9573 16.9609 35.344 16.9609 34.5901V33.2229H18.0817L18.3726 34.9673C18.4281 35.2988 18.4964 35.6292 18.5753 35.9573H18.3281ZM16.9632 19.1409H14.2785C14.9709 9.97784 22.6179 2.73462 31.9999 2.73462C41.3403 2.73462 49.0209 9.97688 49.7213 19.1409H47.0368C46.9384 11.5903 40.7897 5.46899 33.2237 5.46899H30.7764C23.2106 5.46899 17.0615 11.5903 16.9632 19.1409ZM30.7763 8.20337H33.2236C39.3498 8.20337 44.3082 13.2142 44.3046 19.3336C44.3046 19.7639 44.3012 20.1385 44.294 20.4793C44.294 20.4837 44.2938 20.4882 44.2938 20.4927L42.5837 20.2484C37.938 19.5851 33.5516 17.3918 30.2323 14.0726C29.9758 13.8162 29.6281 13.6721 29.2656 13.6721C25.5938 13.6721 22.0791 15.345 19.7557 18.1713C20.3283 12.6042 25.0345 8.20337 30.7763 8.20337ZM21.4097 35.9573C20.7253 33.6805 19.9422 26.9813 19.7691 22.6883L21.6092 20.2348C23.2992 17.9822 25.9284 16.5826 28.7253 16.4219C32.4053 19.9241 37.1661 22.2369 42.1971 22.9552L44.2099 23.2428C44.0754 26.0982 43.8004 28.9636 43.4065 31.5988C43.4064 31.5996 43.4062 31.6006 43.4061 31.6016C43.2809 32.4488 43.1822 32.994 42.9301 34.5169C42.206 38.8598 38.9655 42.7871 34.6877 43.8566C32.9272 44.2962 31.0724 44.296 29.3129 43.8566C26.6418 43.1889 24.1926 41.3407 22.612 38.6917H25.3992C25.9635 40.2829 27.4832 41.426 29.2656 41.426H31.9999C34.2661 41.426 36.1015 39.5907 36.1015 37.3245C36.1015 35.0629 34.2615 33.2229 31.9999 33.2229H29.2656C27.4435 33.2229 25.9463 34.3998 25.3968 35.9573H21.4097ZM29.1506 46.6235C30.0883 46.8211 31.0444 46.9221 31.9999 46.9221C32.7479 46.9221 33.4961 46.8595 34.2357 46.7381L31.8199 49.293L29.1506 46.6235ZM29.9403 51.2806L25.6038 55.8664C24.41 53.5813 23.3842 51.2031 22.5428 48.7684L24.1713 45.5115L29.9403 51.2806ZM39.5969 45.0483L41.4568 48.7682C40.614 51.207 39.588 53.5861 38.3954 55.8684L33.754 51.2271L39.5969 45.0483ZM27.8984 37.3245C27.8984 36.5696 28.5106 35.9573 29.2656 35.9573H31.9999C32.7538 35.9573 33.3671 36.5706 33.3671 37.3245C33.3671 38.0794 32.7548 38.6917 31.9999 38.6917H29.2656C28.5117 38.6917 27.8984 38.0783 27.8984 37.3245ZM3.34369 67.2659C3.88551 60.493 8.39299 54.3368 14.4592 52.3139L20.2142 50.396C21.2686 53.3115 22.5748 56.1453 24.1057 58.837C24.1083 58.8417 24.1107 58.8463 24.1133 58.8508C24.1133 58.851 24.1135 58.851 24.1135 58.8511C25.2319 60.8183 26.4909 62.7408 27.8557 64.5658L29.5376 67.2659H3.34369ZM31.9999 66.0472L30.1458 63.0704C30.125 63.037 30.1028 63.0046 30.0793 62.9732C28.9722 61.4963 27.9394 59.9518 26.9988 58.3709L31.8746 53.2147L37.0122 58.3524C36.0653 59.9447 35.0289 61.4957 33.9208 62.9729C33.8538 63.0622 33.9489 62.9215 31.9999 66.0472ZM34.4622 67.2659L36.144 64.5659C37.5149 62.7339 38.7828 60.7961 39.9125 58.8057C39.9194 58.7937 39.9258 58.7814 39.9326 58.7693C39.9335 58.7678 39.9343 58.7665 39.9351 58.765C41.4465 56.099 42.7391 53.2898 43.7856 50.396L49.5405 52.3139C55.6069 54.3368 60.1144 60.493 60.6562 67.2659H34.4622Z" fill="#F2994A"/>
</svg>
