<svg width="71" height="68" viewBox="0 0 71 68" fill="none" xmlns="http://www.w3.org/2000/svg">
<path d="M70.365 37.2336C69.7365 30.9119 66.9122 24.9521 62.4122 20.4519C58.5665 16.6064 53.8595 14.1352 48.9066 13.0363V9.56254C50.9296 9.05927 52.4332 7.22817 52.4332 5.05171C52.4332 2.48847 50.348 0.403198 47.7847 0.403198H37.9408C35.3776 0.403198 33.2923 2.48847 33.2923 5.05171C33.2923 7.22803 34.796 9.05913 36.8187 9.56254V13.0461C31.8811 14.1495 27.1896 16.6173 23.3549 20.4521C22.5157 21.2913 21.7419 22.1716 21.0335 23.0866C20.9992 23.084 20.9649 23.0814 20.9299 23.0814H11.187C10.432 23.0814 9.81979 23.6935 9.81979 24.4486C9.81979 25.2037 10.432 25.8158 11.187 25.8158H19.1731C18.1707 27.494 17.3624 29.2565 16.7472 31.0708H1.86715C1.11218 31.0708 0.499939 31.6829 0.499939 32.438C0.499939 33.1931 1.11218 33.8052 1.86715 33.8052H15.9746C15.5805 35.5349 15.3544 37.2951 15.296 39.0603H9.25008C8.4951 39.0603 7.88287 39.6724 7.88287 40.4276C7.88287 41.1827 8.4951 41.7948 9.25008 41.7948H15.3396C15.455 43.5645 15.7395 45.3249 16.1933 47.0499H7.33598C6.58101 47.0499 5.96877 47.662 5.96877 48.4171C5.96877 49.1722 6.58101 49.7843 7.33598 49.7843H17.0659C18.4071 53.3324 20.5032 56.6578 23.3549 59.5095C27.8593 64.014 33.8252 66.8389 40.1535 67.4641C41.0567 67.5532 41.9605 67.5974 42.8632 67.5974C48.1983 67.5974 53.4656 66.0534 57.935 63.1429C58.5678 62.7308 58.7467 61.8838 58.3346 61.2511C57.9226 60.6184 57.0756 60.4394 56.4428 60.8515C46.6595 67.2222 33.5571 65.8448 25.2884 57.576C15.5864 47.8741 15.5864 32.0879 25.2884 22.3857C34.9902 12.6839 50.7764 12.6839 60.4786 22.3857C68.7364 30.6437 70.1214 43.7348 63.7716 53.5134C63.3604 54.1467 63.5404 54.9935 64.1736 55.4046C64.8072 55.8159 65.6537 55.6358 66.0648 55.0025C69.4574 49.7778 70.9846 43.4674 70.365 37.2336ZM36.0267 5.05184C36.0267 3.99636 36.8853 3.13775 37.9408 3.13775H47.7847C48.8402 3.13775 49.6988 3.99636 49.6988 5.05184C49.6988 6.10733 48.8402 6.96594 47.7847 6.96594H47.5394H38.186H37.9408C36.8853 6.96594 36.0267 6.10719 36.0267 5.05184ZM39.5532 12.576V9.70035H46.1722V12.5711C43.9743 12.3097 41.7507 12.3113 39.5532 12.576Z" fill="#F2994A"/>
<path d="M61.446 57.1749C61.085 57.1749 60.7337 57.3212 60.4795 57.5755C60.2239 57.8298 60.0788 58.1825 60.0788 58.5421C60.0788 58.9017 60.2239 59.2544 60.4795 59.5087C60.7337 59.7644 61.0852 59.9093 61.446 59.9093C61.8056 59.9093 62.1569 59.7644 62.4126 59.5087C62.6669 59.2544 62.8132 58.9017 62.8132 58.5421C62.8132 58.1825 62.667 57.8298 62.4126 57.5755C62.1569 57.3212 61.8054 57.1749 61.446 57.1749Z" fill="#F2994A"/>
<path d="M42.8836 18.7712C31.1887 18.7712 21.6742 28.2856 21.6742 39.9806C21.6742 51.6756 31.1887 61.19 42.8836 61.19C54.5784 61.19 64.0929 51.6756 64.0929 39.9806C64.0929 28.2856 54.5784 18.7712 42.8836 18.7712ZM42.8836 58.4556C32.6963 58.4556 24.4086 50.1677 24.4086 39.9806C24.4086 29.7935 32.6963 21.5057 42.8836 21.5057C53.0708 21.5057 61.3585 29.7935 61.3585 39.9806C61.3585 50.1677 53.0708 58.4556 42.8836 58.4556Z" fill="#F2994A"/>
<path d="M51.5319 29.3987L44.7602 36.1704C44.1939 35.8904 43.5569 35.7322 42.8835 35.7322C42.21 35.7322 41.5732 35.8904 41.0069 36.1704L37.9762 33.1397C37.4422 32.6058 36.5767 32.6058 36.0426 33.1397C35.5087 33.6736 35.5087 34.5393 36.0426 35.0732L39.0733 38.1039C38.7931 38.6702 38.6351 39.3071 38.6351 39.9805C38.6351 42.3231 40.5408 44.229 42.8835 44.229C45.2262 44.229 47.132 42.3231 47.132 39.9805C47.132 39.3071 46.9738 38.6702 46.6938 38.1039L53.2668 31.5309L53.4654 31.3322C53.9993 30.7983 53.9993 29.9326 53.4654 29.3987C52.9316 28.8648 52.0661 28.8648 51.5319 29.3987ZM42.8835 41.4947C42.0487 41.4947 41.3695 40.8155 41.3695 39.9806C41.3695 39.1458 42.0487 38.4666 42.8835 38.4666C43.7184 38.4666 44.3976 39.1458 44.3976 39.9806C44.3976 40.8155 43.7184 41.4947 42.8835 41.4947Z" fill="#F2994A"/>
<path d="M57.5016 38.6301H56.2349C55.4799 38.6301 54.8677 39.2422 54.8677 39.9973C54.8677 40.7524 55.4799 41.3645 56.2349 41.3645H57.5016C58.2565 41.3645 58.8688 40.7524 58.8688 39.9973C58.8688 39.2422 58.2565 38.6301 57.5016 38.6301Z" fill="#F2994A"/>
<path d="M29.532 38.5967H28.2655C27.5105 38.5967 26.8983 39.2088 26.8983 39.9639C26.8983 40.719 27.5105 41.3311 28.2655 41.3311H29.532C30.287 41.3311 30.8992 40.719 30.8992 39.9639C30.8992 39.2088 30.287 38.5967 29.532 38.5967Z" fill="#F2994A"/>
<path d="M42.9002 27.9963C43.6552 27.9963 44.2674 27.3842 44.2674 26.6291V25.3625C44.2674 24.6075 43.6552 23.9954 42.9002 23.9954C42.1452 23.9954 41.533 24.6075 41.533 25.3625V26.6291C41.533 27.3842 42.1452 27.9963 42.9002 27.9963Z" fill="#F2994A"/>
<path d="M42.8669 51.965C42.1119 51.965 41.4997 52.5771 41.4997 53.3322V54.5987C41.4997 55.3538 42.1119 55.9659 42.8669 55.9659C43.6218 55.9659 44.234 55.3538 44.234 54.5987V53.3322C44.234 52.5771 43.6218 51.965 42.8669 51.965Z" fill="#F2994A"/>
<path d="M1.86713 47.0493C1.50756 47.0493 1.15482 47.1956 0.900525 47.4499C0.646228 47.7042 0.499939 48.0569 0.499939 48.4165C0.499939 48.7774 0.646091 49.1288 0.900525 49.3831C1.15496 49.6374 1.50756 49.7837 1.86713 49.7837C2.2267 49.7837 2.57943 49.6374 2.83359 49.3831C3.08789 49.1288 3.23431 48.7761 3.23431 48.4165C3.23431 48.0569 3.08802 47.7042 2.83359 47.4499C2.57943 47.1956 2.2267 47.0493 1.86713 47.0493Z" fill="#F2994A"/>
</svg>
