<svg width="22" height="20" viewBox="0 0 22 20" fill="none" xmlns="http://www.w3.org/2000/svg">
<g clip-path="url(#clip0_51_132)">
<path d="M21.5346 17.6634L14.8008 11.7793C15.9007 10.5564 16.5575 9.01545 16.5575 7.34295C16.5575 3.37737 12.8654 0.151184 8.32717 0.151184C3.789 0.151184 0.0969238 3.37737 0.0969238 7.3429C0.0969238 11.3084 3.789 14.5346 8.32717 14.5346C10.2411 14.5346 12.0046 13.9607 13.4041 12.9996L20.138 18.8838C20.3308 19.0523 20.5836 19.1365 20.8363 19.1365C21.0891 19.1365 21.3418 19.0523 21.5346 18.8838C21.9203 18.5468 21.9203 18.0004 21.5346 17.6634ZM2.0721 7.3429C2.0721 4.32906 4.87811 1.87713 8.32717 1.87713C11.7762 1.87713 14.5823 4.32906 14.5823 7.3429C14.5823 10.3567 11.7762 12.8087 8.32717 12.8087C4.87811 12.8087 2.0721 10.3567 2.0721 7.3429Z" fill="black"/>
</g>
<defs>
<clipPath id="clip0_51_132">
<rect width="21.727" height="18.9854" fill="white" transform="translate(0.0969238 0.151184)"/>
</clipPath>
</defs>
</svg>
